inDegrees=no
num_controls=7
num_derivatives=13
num_iterations=59
num_multipliers=7
num_parameters=0
num_slacks=7
num_states=26
objective=0.419943
objective_accelerations=0.069170
objective_balance=0.006437
objective_effort=0.036724
objective_height=0.307611
objective_ligament=0.000000
solver_duration=766.160272
status=Solve_Succeeded
success=true
DataType=double
version=3
OpenSimVersion=4.5
endheader
time	/jointset/ground_pelvis/pelvis_tilt/value	/jointset/ground_pelvis/pelvis_tx/value	/jointset/ground_pelvis/pelvis_ty/value	/jointset/hip_l/hip_flexion_l/value	/jointset/hip_l/hip_adduction_l/value	/jointset/hip_l/hip_rotation_l/value	/jointset/back/lumbar_extension/value	/jointset/patellofemoral_l/patellar_flexion_l/value	/jointset/knee_l/knee_flexion_l/value	/jointset/knee_l/knee_adduction_l/value	/jointset/knee_l/knee_rotation_l/value	/jointset/ankle_l/ankle_angle_l/value	/jointset/subtalar_l/subtalar_angle_l/value	/jointset/ground_pelvis/pelvis_tilt/speed	/jointset/ground_pelvis/pelvis_tx/speed	/jointset/ground_pelvis/pelvis_ty/speed	/jointset/hip_l/hip_flexion_l/speed	/jointset/hip_l/hip_adduction_l/speed	/jointset/hip_l/hip_rotation_l/speed	/jointset/back/lumbar_extension/speed	/jointset/patellofemoral_l/patellar_flexion_l/speed	/jointset/knee_l/knee_flexion_l/speed	/jointset/knee_l/knee_adduction_l/speed	/jointset/knee_l/knee_rotation_l/speed	/jointset/ankle_l/ankle_angle_l/speed	/jointset/subtalar_l/subtalar_angle_l/speed	/forceset/tau_hip_flexion_l	/forceset/tau_hip_adduction_l	/forceset/tau_hip_rotation_l	/forceset/tau_knee_flexion_l	/forceset/tau_ankle_angle_l	/forceset/tau_subtalar_angle_l	/forceset/tau_lumbar_extension	lambda_cid13_p0	lambda_cid13_p1	lambda_cid13_p2	lambda_cid13_p3	lambda_cid13_p4	lambda_cid13_p5	lambda_cid14_p0	/jointset/ground_pelvis/pelvis_tilt/accel	/jointset/ground_pelvis/pelvis_tx/accel	/jointset/ground_pelvis/pelvis_ty/accel	/jointset/hip_l/hip_flexion_l/accel	/jointset/hip_l/hip_adduction_l/accel	/jointset/hip_l/hip_rotation_l/accel	/jointset/back/lumbar_extension/accel	/jointset/patellofemoral_l/patellar_flexion_l/accel	/jointset/knee_l/knee_flexion_l/accel	/jointset/knee_l/knee_adduction_l/accel	/jointset/knee_l/knee_rotation_l/accel	/jointset/ankle_l/ankle_angle_l/accel	/jointset/subtalar_l/subtalar_angle_l/accel	gamma_cid13_p0	gamma_cid13_p1	gamma_cid13_p2	gamma_cid13_p3	gamma_cid13_p4	gamma_cid13_p5	gamma_cid14_p0
1.5	-0.3272089199296638	-0.03375801642780376	0.7120398041520825	1.341384092510138	-0.2493006443592753	-0.03447272187484257	-0.3518061443316535	1.073400505952123	1.073400505951447	0.01589158693109592	0.1744117465981045	0.2689775921829338	0.07323445983288385	0.3408840524202175	0.1190263557878633	0.7658486071816448	-2.554576641152171	-0.06093999269378465	-0.3914261420138636	0.5726843768929949	-2.813269050213384	-2.813269050213282	-0.4865365727249089	-0.005872571153452298	-0.7487777926911394	-0.2814164269216868	-0.1917596445447712	0.04118909367159024	-0.009530261575554073	-0.3057206358819009	0.1052252194246981	-0.002867367208079398	0.193794415111585	-4.369258882023416	6.035109824192534	-5.961854995717264	-6.762887024071194	-590.9559475404759	-29.45347821097327	-5.011155154156072	1.106024864309218	0.8592538304865009	-0.7820618093876338	-1.514430678576361	-0.1272996833237668	-0.8001542869962203	1.907950397297724	-1.611281327170592	-1.611281327170731	-0.3843406776494103	-0.3088323248436394	-1.41592364981913	-0.1901272308066276	-1.116186004088545e-07	6.047423006869342e-06	3.291878573056798e-06	9.161275836165105e-07	3.205745479643795e-07	4.07659690325904e-06	1.871097753045702e-07
1.51	-0.3237453602330512	-0.03252503812112321	0.719657482697509	1.315765464549188	-0.2499176517212296	-0.03843227290368104	-0.3459853351224737	1.045190461685308	1.045190461684794	0.01100901685601967	0.1743426245176991	0.2614197852432715	0.07040950320725681	0.3517427659375456	0.1275411766686759	0.7575077520844871	-2.56879144505589	-0.06242783819768784	-0.4004615206089631	0.5913720494409537	-2.828330186171225	-2.828330186171419	-0.4899506904873081	-0.007990867088147604	-0.7626352659023521	-0.2834790429276606	-0.1848812658441309	0.04018125935566223	-0.009187824958276291	-0.3006200058648431	0.1068216047049062	-0.003430642478167787	0.1877026904586474	-3.453688645510689	5.786053720903308	-5.541350139895286	-6.976366506637108	-584.0427447865969	-29.36681566397247	-6.502535895132605	1.063044555922846	0.8435466841523683	-0.8869201459491634	-1.321361956945454	-0.1552033428374923	-0.9514264164185265	1.833363358323938	-1.392150441888794	-1.392150441933148	-0.3149974080670441	-0.1697227633148373	-1.348163758636243	-0.2012369006702205	-2.588727784199005e-08	6.23340907515416e-06	2.699083546077644e-06	8.718208349690639e-07	3.719618333805644e-07	3.877373333571164e-06	2.723710856686557e-07
1.52	-0.3201757634091715	-0.03120772151217962	0.72718638813475	1.290015417207063	-0.2505486728100069	-0.04248141707259748	-0.3399808116528598	1.016842081916546	1.016842081916209	0.006093295586824351	0.1742510405708347	0.2537279026511239	0.06756653879853457	0.3620914778740019	0.1358940162404734	0.7480939855445657	-2.580860517386637	-0.06374273805814959	-0.4093447700301368	0.6094272289800696	-2.840936150600984	-2.840936150601474	-0.4931668115509817	-0.01036494444413746	-0.7755929231881223	-0.2850179835407333	-0.1780028871435074	0.03917342503974314	-0.008845388340892471	-0.2955193758477822	0.1084179899851192	-0.003993917748235159	0.1816109658056911	-2.527330493087824	5.515070479042775	-5.094464932607703	-7.281013894762269	-576.9760488634687	-29.34214661061456	-8.189641481068577	1.004024548134893	0.8268575686834784	-0.9966440979403022	-1.085284363982051	-0.09271055463553191	-0.7697284522111255	1.78145179552921	-1.120247021553991	-1.120247021554144	-0.3447413379043319	-0.3599886091024374	-1.235960464730653	-0.08539215222650054	-2.621369049641357e-08	6.035152339309524e-06	2.638137658907881e-06	8.544623618772086e-07	3.279925711571181e-07	3.557486443065261e-06	2.761306501557039e-07
1.53	-0.3165053461122144	-0.02980773236479359	0.7346158489459237	1.264155693431511	-0.2511912287308051	-0.04661840813641233	-0.3337989508303053	0.988380413481548	0.9883804134814768	0.001147403868836254	0.1741334983317706	0.2459114745202242	0.06471185830625631	0.3718973119585215	0.1440684002776621	0.7376317334664964	-2.590718055162034	-0.06473669300844269	-0.4180044887604633	0.6268199237165333	-2.850973869600736	-2.850973869601133	-0.4960026688050174	-0.01318222337794667	-0.7875280260930753	-0.2858319544715203	-0.1709923663103117	0.03797482900615794	-0.008641988355053341	-0.2910162928339012	0.1103370086153802	-0.004723071308521951	0.1754201564695105	-1.538751008314631	5.305713295142657	-4.657948270316254	-7.563353183350104	-570.3389956140707	-29.28407648569785	-10.02512120133603	0.9546688528688922	0.8075912317792917	-1.09596126072853	-0.8810614443647973	-0.09882034710475777	-0.9065951745151271	1.699426540631348	-0.8820141091394296	-0.8820141091254057	-0.2508723602692234	-0.2491118303516596	-1.147381127755	-0.06768769939909901	-1.179764468234546e-07	5.428637624077348e-06	3.142281482785587e-06	8.657364315631689e-07	1.827069770665645e-07	3.109394774190209e-06	1.93294609648401e-07
1.54	-0.3127397092715608	-0.028327026894927	0.7419356981367189	1.238208379686197	-0.2518429406774811	-0.05084049670573444	-0.3274469134148018	0.9598310719025644	0.9598310719027525	-0.003826419309934815	0.1739864804444059	0.2379806761753979	0.06185138047749131	0.3811353866133698	0.1520372807365861	0.7261716614689052	-2.598378511339282	-0.06557394323389669	-0.4263642711336544	0.6434625475700505	-2.858470779398636	-2.85847077939894	-0.4987531037036841	-0.01626007410501502	-0.7984669659731251	-0.2861774508380768	-0.1639818454771149	0.03677623297263614	-0.008438588369400429	-0.286513209820021	0.1122560272456573	-0.005452224868729701	0.1692293471333219	-0.554305116476751	5.09193305699597	-4.214851965085812	-7.861292738641074	-563.7419490464074	-29.26066319837059	-11.87651146075167	0.8904726622006603	0.7857568530305374	-1.196208081844647	-0.6458680443521924	-0.06136960966768913	-0.7097411807841021	1.63143761893996	-0.6120851811837026	-0.6120851811836697	-0.3276568668305601	-0.4121029677541718	-1.03672785975009	0.008302760619543575	-2.464702357906727e-07	5.172005723491075e-06	4.158811001365336e-06	9.505595578562445e-07	1.688140295550112e-08	2.823746828952985e-06	9.722430583638007e-08
